<svg t="1777013101712" class="icon" viewBox="0 0 1024 1024" version="1.1" xmlns="http://www.w3.org/2000/svg"><path d="M731.45078519 393.48263505c-11.13302914 0-22.00715061 0.9061768-32.62236444 2.71853036 1.68289975-10.09739852 2.45962272-20.58315852 2.45962272-31.19837234 0-107.18776889-86.99297185-194.18074075-194.18074075-194.18074071s-194.18074075 86.99297185-194.18074074 194.18074071c0 10.61521383 0.9061768 20.97152 2.45962272 31.19837234-10.61521383-1.81235358-21.48933531-2.71853037-32.62236445-2.71853036-107.18776889 0-194.18074075 86.99297185-194.18074075 194.18074074s86.99297185 194.18074075 194.18074075 194.18074075h195.8636405V638.79763752h-65.50363655c-6.60214518 0-10.35630617-7.76722963-6.08432988-12.81592889l93.98347852-114.82554469c3.10689185-3.88361482 9.0617679-3.88361482 12.16865975 0l93.98347853 114.82554469c4.2719763 5.17815309 0.51781531 12.81592889-6.08432988 12.81592889h-65.50363654v143.04647902H731.45078519c107.18776889 0 194.18074075-86.99297185 194.18074073-194.18074074 0-107.31722272-86.99297185-194.18074075-194.18074073-194.18074075z" fill="#398cf4"></path></svg>